<?xml version="1.0" encoding="UTF-8"?>
<svg version="1.1" viewBox="0 0 1000 1000" xmlns="http://www.w3.org/2000/svg">
<path d="m115.38 0c-63.723 0.0062231-115.38 51.662-115.38 115.38v769.23c0.0062231 63.723 51.662 115.38 115.38 115.38h769.23c63.723-0.00622 115.38-51.662 115.38-115.38v-769.23c-0.00622-63.723-51.662-115.38-115.38-115.38z" fill="#2563eb"/>
<path d="m228.38 256.95 68.577 359.69 83.368-272.96c9.4126-30.927 24.428-54.907 45.046-71.939s47.063-25.548 79.334-25.548c13.895 0 27.117 2.4652 39.667 7.3956 12.998 4.9304 24.652 11.654 34.961 20.17 10.757 8.5161 19.946 18.825 27.565 30.927 8.0679 12.102 14.119 25.1 18.153 38.995l82.024 272.96 69.922-359.69h126.4l-73.283 396.67c-5.8268 32.272-20.17 57.148-43.029 74.628-22.411 17.032-49.304 25.548-80.679 25.548-30.927 0-57.372-8.7402-79.334-26.221-21.514-17.929-36.754-42.581-45.718-73.956l-76.645-269.6-82.024 269.6c-9.4126 31.375-25.1 56.027-47.063 73.956-21.514 17.48-48.407 26.221-80.679 26.221-33.168 0-60.509-7.8438-82.024-23.531-21.066-16.136-34.737-41.684-41.012-76.645l-75.3-396.67z" fill="#fff"/>
</svg>
